HIERARCHY
ROOT pelvis
{
  OFFSET 0 100 0
  CHANNELS 6 Xposition Yposition Zposition Zrotation Xrotation Yrotation
  JOINT pelvis_right_femur
  {
    OFFSET -10.78128 -3.44521 -0.5502486
    CHANNELS 3 Zrotation Xrotation Yrotation
    JOINT right_femur_tibia
    {
      OFFSET -0.8047443 -44.0398 -0.1307829
      CHANNELS 3 Zrotation Xrotation Yrotation
      JOINT right_tibia_foot
      {
        OFFSET 3.006224 -47.83518 -5
        CHANNELS 3 Zrotation Xrotation Yrotation
        End Site
        {
          OFFSET 0 -5 15
        }
      }
    }
  }
  JOINT pelvis_left_femur
  {
    OFFSET 10.78128 -3.44521 -0.5502486
    CHANNELS 3 Zrotation Xrotation Yrotation
    JOINT left_femur_tibia
    {
      OFFSET 0.8047443 -44.0398 -0.1307829
      CHANNELS 3 Zrotation Xrotation Yrotation
      JOINT left_tibia_foot
      {
        OFFSET -4.370144 -48.10324 -4.275266
        CHANNELS 3 Zrotation Xrotation Yrotation
        End Site
        {
          OFFSET 0 -5 15
        }
      }
    }
  }
  JOINT pelvis_spine1
  {
    OFFSET 0 6.468898 -3.129235
    CHANNELS 3 Zrotation Xrotation Yrotation
    JOINT spine1
    {
      OFFSET 0 23.15396 4.99043
      CHANNELS 3 Zrotation Xrotation Yrotation
      JOINT spine2
      {
        OFFSET 0 20.79997 -5.064912
        CHANNELS 3 Zrotation Xrotation Yrotation
        JOINT neck
        {
          OFFSET 0 14.38658 9.616178
          CHANNELS 3 Zrotation Xrotation Yrotation
          End Site
          {
            OFFSET 0 20 0
          }
        }
      }
      JOINT right_manubrium
      {
        OFFSET -5.722621 16.35077 3.967754
        CHANNELS 3 Zrotation Xrotation Yrotation
        JOINT right_clavicle
        {
          OFFSET -13.16364 1.694482 -4.693211
          CHANNELS 3 Zrotation Xrotation Yrotation
          JOINT right_humerus
          {
            OFFSET -28.5034 -0.3100689 -2.792744
            CHANNELS 3 Zrotation Xrotation Yrotation
            JOINT right_radius
            {
              OFFSET -25.15693 0.02248979 -1.271978
              CHANNELS 3 Zrotation Xrotation Yrotation
              End Site
              {
                OFFSET -15 0 0
              }
            }
          }
        }
      }
      JOINT left_manubrium
      {
        OFFSET 5.722621 16.35077 3.967754
        CHANNELS 3 Zrotation Xrotation Yrotation
        JOINT left_clavicle
        {
          OFFSET 13.16364 1.694482 -4.693211
          CHANNELS 3 Zrotation Xrotation Yrotation
          JOINT left_humerus
          {
            OFFSET 29.39168 -1.063119 -2.237045
            CHANNELS 3 Zrotation Xrotation Yrotation
            JOINT left_radius
            {
              OFFSET 24.59957 -0.9528479 0.9047498
              CHANNELS 3 Zrotation Xrotation Yrotation
              End Site
              {
                OFFSET 15 -0 -0
              }
            }
          }
        }
      }
    }
  }
}
MOTION
Frames: 13
Frame Time: 0.0416666666667
0 103.5113 0 -0.1527848 -1.928901 -0.03888387 5.168673 -16.8904 8.861331 -0 37.6795 -0 -6.344 -15.28115 -3.54567 -6.076257 10.2883 -21.54858 -0 5.387686 -0 10.22351 -15.08989 27.40733 -2.467527 -3.136565 4.228708 2.458579 9.646012 -7.015815 2.177837 22.37556 5.58651 1.772364 -24.2798 9.954926 4.200302 -20.72264 11.20589 86.30737 30.98279 -16.60419 -0 0 16.91981 -7.378366 8.240163 4.372801 5.924542 -18.85269 -1.312336 -93.75595 22.7096 21.58478 0 0 -11.87816 13.31588 17.03545 -1.730621
0.3114436 103.5432 2.306392 -0.1654657 -1.257957 -0.03239971 5.317384 -18.57429 8.733574 -0 36.05913 -0 -6.263249 -14.80188 -3.329141 -6.158204 10.69576 -21.46016 -0 5.917011 -0 10.05949 -15.7219 26.93532 -2.590631 -3.017555 4.209827 2.616191 9.504331 -7.178544 2.066733 22.18524 5.848446 2.009962 -24.6092 9.980358 4.476695 -20.34964 11.23742 86.25998 31.81738 -17.16324 -0 0 16.38393 -7.216472 8.237544 4.336341 6.053665 -19.07435 -1.241127 -93.40118 22.99199 21.0913 0 0 -13.03622 13.10048 16.70519 -1.400681
0.5721769 103.4019 5.401754 -0.4819729 -2.855117 -0.1519306 5.393594 -18.1696 5.895574 -0 31.42759 -0 -7.634412 -8.972984 -2.44602 -5.658117 10.68911 -18.61339 -0 10.08846 -0 9.156544 -15.2133 25.37897 -1.801928 -2.868332 3.925243 2.307716 10.77673 -7.018709 2.109369 22.41263 5.73611 2.014773 -24.39964 9.65766 2.325728 -20.79598 11.44985 88.79532 27.23004 -17.99703 -0 0 14.20854 -10.75354 8.419713 5.70557 6.352745 -20.87551 -2.589252 -92.23805 19.8909 19.77643 0 0 -14.29903 15.40311 16.86898 -4.234078
0.7680207 103.2447 9.141699 -0.6834615 -4.203036 -0.3592712 5.429215 -17.70989 3.636018 -0 27.6854 -0 -8.789716 -4.56241 -1.76472 -5.279677 10.68382 -16.28519 -0 13.75834 -0 8.415355 -14.77621 24.14424 -1.200202 -2.767581 3.720537 2.02907 11.75446 -6.886929 2.1556 22.65781 5.602055 1.984489 -24.09193 9.366741 0.5774625 -21.09129 11.58045 90.82791 23.59524 -18.58003 -0 0 12.41053 -13.56037 8.506623 6.728898 6.532217 -22.32689 -3.676523 -91.30721 17.52034 18.62331 0 0 -15.49615 17.1093 16.94553 -6.366295
0.8879702 103.1083 13.43126 -0.804666 -5.620905 -0.65347 5.465681 -16.68791 1.762559 -0 24.7509 -0 -9.834545 -1.037602 -1.276742 -4.938555 10.48356 -14.19128 -0 17.43132 -0 7.879029 -14.11662 23.21821 -0.6667673 -2.768142 3.617342 1.706943 12.67567 -6.741729 2.239498 22.9433 5.357406 1.863747 -23.60938 9.060528 -1.047573 -21.43055 11.67367 92.68632 20.25088 -18.94762 -0 0 10.95668 -16.04731 8.605218 7.551784 6.586638 -23.59092 -4.676122 -90.53308 15.39044 17.67775 0 0 -16.50278 18.5923 17.03009 -8.247063
0.9199822 103.0446 18.16911 -0.8713869 -7.002489 -1.027049 5.523235 -15.31504 0.27983 -0 22.49445 -0 -10.73718 1.594787 -0.9874754 -4.630265 10.14345 -12.39838 -0 21.05899 -0 7.428057 -13.35469 22.51173 -0.2152004 -2.826624 3.588223 1.373361 13.47642 -6.593891 2.346836 23.24978 5.048477 1.694198 -23.01448 8.755544 -2.485123 -21.74848 11.72467 94.31956 17.34267 -19.17162 -0 0 9.824977 -18.1343 8.708778 8.167832 6.530957 -24.62641 -5.563008 -89.91339 13.69124 16.9375 0 0 -17.34563 19.66823 17.15972 -9.654126
0.8568818 103.0921 23.24618 -0.9128751 -8.326206 -1.476243 5.614755 -13.59143 -0.8051631 -0 20.95148 -0 -11.48346 3.3602 -0.8988212 -4.333366 9.610374 -10.93108 -0 24.56967 -0 7.031325 -12.48197 22.00094 0.1663673 -2.924256 3.624316 1.038305 14.15752 -6.438992 2.474442 23.55954 4.686284 1.486137 -22.34652 8.460845 -3.717454 -22.06228 11.74125 95.70168 14.88421 -19.24653 -0 0 9.062538 -19.81303 8.836526 8.60507 6.370713 -25.40298 -6.331545 -89.46696 12.44051 16.47232 0 0 -17.9188 20.31515 17.36497 -10.55321
0.6974828 103.2783 28.55799 -0.9589859 -9.528626 -1.996918 5.743142 -11.64313 -1.520318 -0 20.02653 -0 -12.06739 4.360746 -0.9754153 -4.032933 8.862373 -9.780254 -0 27.86243 -0 6.669335 -11.53096 21.63168 0.4857273 -3.036214 3.714532 0.7221672 14.72314 -6.285503 2.608538 23.8381 4.300565 1.262112 -21.6713 8.185346 -4.718962 -22.37749 11.73801 96.80388 12.91252 -19.19395 -0 0 8.672101 -21.09685 9.006441 8.908155 6.128279 -25.92412 -6.97356 -89.18656 11.60796 16.31096 0 0 -18.20118 20.55596 17.6273 -10.95922
0.4476759 103.6122 34.00942 -1.033196 -10.56572 -2.584847 5.901006 -9.568625 -1.907133 -0 19.62236 -0 -12.49118 4.717136 -1.171493 -3.714947 7.87842 -8.916667 -0 30.79272 -0 6.346543 -10.52718 21.36715 0.7519268 -3.143919 3.849826 0.4402647 15.18916 -6.139861 2.736444 24.05452 3.914851 1.036919 -21.04458 7.934594 -5.480443 -22.71411 11.72934 97.60877 11.42708 -19.01963 -0 0 8.655215 -22.02594 9.233857 9.130965 5.828878 -26.20686 -7.485501 -89.06765 11.1155 16.47583 0 0 -18.17314 20.45694 17.9111 -10.94136
0.1194933 104.0846 39.52183 -1.148342 -11.41264 -3.234381 6.073933 -7.454027 -2.024183 -0 19.61112 -0 -12.76309 4.571907 -1.436781 -3.370331 6.661605 -8.289336 -0 33.20489 -0 6.079532 -9.502503 21.18034 0.9724415 -3.237011 4.021975 0.2022473 15.57838 -6.008578 2.846654 24.18519 3.547548 0.8202363 -20.5061 7.709373 -6.011906 -23.09504 11.72722 98.12081 10.39151 -18.72958 -0 0 8.993363 -22.66666 9.529042 9.328782 5.499512 -26.28784 -7.872424 -89.09599 10.85737 16.96068 0 0 -17.85183 20.10832 18.17312 -10.60212
-0.2705136 104.6691 45.03601 -1.306433 -12.06734 -3.937935 6.244035 -5.353414 -1.933958 -0 19.87132 -0 -12.89213 4.06041 -1.728598 -2.995574 5.24021 -7.841638 -0 34.93894 -0 5.889757 -8.49054 21.05959 1.152486 -3.314631 4.223051 0.01092788 15.91371 -5.896046 2.931247 24.21829 3.209059 0.6153146 -20.0746 7.507307 -6.339131 -23.54263 11.73854 98.36302 9.741122 -18.32646 -0 0 9.656665 -23.096 9.895309 9.548871 5.164613 -26.21104 -8.145606 -89.25158 10.72667 17.73643 0 0 -17.27392 19.60364 18.37882 -10.05359
-0.7032875 105.3272 50.51179 -1.501619 -12.5435 -4.686246 6.393282 -3.295146 -1.694119 -0 20.30799 -0 -12.88642 3.294399 -2.016555 -2.593568 3.669242 -7.524911 -0 35.84773 -0 5.794436 -7.525627 21.00465 1.295426 -3.383624 4.444182 -0.1358679 16.21135 -5.804419 2.986282 24.15387 2.903264 0.4206914 -19.75157 7.325346 -6.496137 -24.0723 11.7645 98.37018 9.397971 -17.81292 -0 0 10.60665 -23.38517 10.32722 9.823335 4.844296 -26.01822 -8.318445 -89.51122 10.63689 18.75634 0 0 -16.48473 19.02377 18.51065 -9.397469
-1.159109 106.0134 55.92445 -1.72452 -12.862 -5.469306 6.505962 -1.291712 -1.350816 -0 20.87053 -0 -12.75424 2.351162 -2.282887 -2.174127 2.025992 -7.310041 -0 35.81407 -0 5.799568 -6.640409 21.02216 1.403983 -3.454629 4.674342 -0.2427394 16.47557 -5.733134 3.011759 24.00275 2.629835 0.2320342 -19.52804 7.162542 -6.517302 -24.68775 11.80094 98.18025 9.285253 -17.19279 -0 0 11.79986 -23.58462 10.80892 10.16455 4.553829 -25.73985 -8.401544 -89.85454 10.53562 19.96478 0 0 -15.52223 18.42767 18.57044 -8.712665
